# xmcd CD database file
#
# Track frame offsets:
#	150
#	31379
#	57293
#	82221
#	111050
#	137390
#	161347
#	179699
#	204776
#	234340
#
# Disc length: 3632 seconds
#
# Revision: 1
# Processed by: cddbd v1.5.2PL0 Copyright (c) Steve Scherf et al.
# Submitted via: CDex 1.70beta2
#
DISCID=7b0e2e0a
DTITLE=Lawrence, Doug - Soul carnival
DYEAR=1997
DGENRE=Jazz
TTITLE0=mr. kenyatta
TTITLE1=soul carnival
TTITLE2=stranger in paradise
TTITLE3=tommie and tilly
TTITLE4=for heaven's sake
TTITLE5=pretty little sally
TTITLE6=indian summer
TTITLE7=light blue
TTITLE8=lament
TTITLE9=uh huh
EXTD=YEAR: 1997
EXTT0=
EXTT1=
EXTT2=
EXTT3=
EXTT4=
EXTT5=
EXTT6=
EXTT7=
EXTT8=
EXTT9=
PLAYORDER=
